<svg version="1.1" id="Capa_1" xmlns="http://www.w3.org/2000/svg" x="0" y="0" viewBox="0 0 1644 1080" style="enable-background:new 0 0 1644 1080" xml:space="preserve"><style>.st0{fill:#fff}</style><path id="XMLID_4260_" class="st0" d="M1515.9 931.7H510v-37.1h1005.9c10.2 0 18.5 8.3 18.5 18.5s-8.3 18.6-18.5 18.6z"/><path id="XMLID_4257_" class="st0" d="M1323.4 390.4c-17.8-24.7-36.7-85.2-36.7-85.2 0 23.3-30.2 75.5-39.8 90.6-9.6 15.1-8 71.2 40.1 69.1 41.2-1.9 54.2-49.8 36.4-74.5zm-10.6 53.4c12.4-20.6 0-48 0-48 27.4 30.2 0 48 0 48z"/><g id="XMLID_4251_"><path id="XMLID_4255_" class="st0" d="M764.1 822.6c-7.1 15.7-23.6 26.2-41.4 31.5 0 .3-.1.4-.4.4-7.1 2.3-16.5 4.1-28.3 5.3-11.8 1.3.7 1.9-16 1.9h-35.7c-16.7 0-28.9-.6-40.7-1.9-11.8-1.3-21.4-3-28.7-5.3-.3 0-.5-.1-.8-.4-9.1-2.8-35.3-17-41.8-31.5-3.4-7.7-6.1-17.4-7.8-29.3-1.7-11.9-2.5-25.8-2.5-41.8V624.9c0-2.5 1-3.8 3-3.8h28.1c2.3 0 3.4 1.3 3.4 3.8v126.6c0 25.8 2.4 44.3 7.2 55.5 4.6 10.4 12.9 16.9 25.1 19.4 9.9 2.5 27 3.8 55.3 3.8h35.7c28.4 0 50.8-13 54.6-23.2 2.8-5.3 4.6-12.6 5.5-21.9.9-9.2 1.3-20.5 1.3-33.6V624.9c0-2.5 1.3-3.8 3.8-3.8h28c2.3 0 3.4 1.3 3.4 3.8v126.6c0 32.2-3.4 55.9-10.3 71.1z"/><path id="XMLID_4253_" class="st0" d="M1101.9 861.7c-2.3 0-3.4-1.1-3.4-3.4l-43.7-171.6L973.5 861c-.5.5-1.4.8-2.7.8h-16.3c-.5 0-1-.1-1.5-.4l-76.6-174.6-46.9 171.6c0 2.3-1.1 3.4-3.4 3.4h-28.8c-2.3 0-3.4-1.1-3.4-3.4L851.6 625c4.9-14.4 30.7-11.3 33.3-3.4L968.4 798l72.6-176c6.3-11.7 34.8-7 36.4.5l59.7 235.9c0 2.3-.9 3.4-2.7 3.4h-32.5z"/><path id="XMLID_4252_" class="st0" d="M1467.6 856.4v.8l-133.3-235.3c-.3-.2-.4-.4-.6-.6-.1-.1-.6-.2-1.3-.2h-36.9c-1 0-1.8.3-2.3.8l-132.9 235.3v-.8c-.5.5-.8 1-.8 1.5v.4c0 2.3 1.1 3.4 3.4 3.4h42.9V860.5v.4l107-185.2 56.8 93.4-80.5.2c-3.9 9.8-10 24.7-14.8 35.7h115.3l32.9 55.9-.4-.4c.2.5.4.9.4 1.1h42.4c2 0 3-1.1 3-3.4v-.4c0-.4-.1-.9-.3-1.4z"/></g><path id="XMLID_4250_" class="st0" d="m109.3 912.1-75.1 47s37.1 87.5 115.3 94.7c78.2 7.2 120.4-22.6 120.4-22.6s80.3-48.7 131.7-170.5 76.2-234 75.1-256.7h-73.1s-14.4 114.2-101.9 159.5-118.4-3.1-118.4-3.1-46.3-45.3-7.2-165.7c0 0 36-99.8 128.7-192.5l-37.1-55.6S116.4 467 87.6 631.7s86.5 201.7 86.5 201.7 108.1 44.3 197.6-65.9c0 0 9.3 5.1 2.1 16.5-7.2 11.3-75 165.2-125.6 197.6-54.5 35-95.7 7.2-95.7 7.2s-38.1-35.2-43.2-76.7z"/><path id="XMLID_4249_" class="st0" d="m302.8 408.5-36-50.4s1-16.5 18-18.5l17-2.1s-12.4-14.4 1-21.6l13.4-7.2 208.9-142s-15.4-47.3 47.3-87.5S733 16.7 733 16.7s30.9-4.5 45.3 21.3c14.4 25.7 41.2 34 41.2 34l69 3.1v112.2h-24.7s-26.8 9.3-29.8 38.1c-3.1 28.8-12.4 70-38.1 94.7-25.9 24.6-40.3 37.9-52.6 37.9-12.4 0-124.5-137.9-124.5-137.9s-18.5-22.6-55.6 0-212 165.7-212 165.7-13.4 4.1-19.6-3.1c0 0-6.2 4.1-5.1 14.4 1 10.3-13.4 13.4-23.7 11.4z"/><path id="XMLID_4246_" class="st0" d="m665.9 276.9-12.2 8.1s-19-12.9-54 0S521 409.1 521 409.1s-2.6 14.8-11.3 19.5c-8.7 4.6-16-9.8-16-9.8l-22.6-107-56.1 49.8 99.8 129.7c18 12.9 35 0 35 0l178.8-144.6-62.7-69.8zM549.3 447.1s-13.4 8.2-19.6-4.1 21.6-56 21.6-56l50.9-77.8s14.9-11.8 22.6 3.1c7.7 14.9 10.8 9.8 10.8 9.8s4.6-5.1 3.6-14.9c0 0 12.9-10.8 26.2 2.6 13.4 13.4 2.6 37.1 2.6 37.1L549.3 447.1z"/><path id="XMLID_4243_" class="st0" d="m886.6 187.2 197.3 9.6 200.8 112.6s20-16.6 32.5-46.1L1111.3 144l-224.7-27.4v70.6z"/><path id="XMLID_4240_" class="st0" d="m886.6 82.2 231.6 34.3 198.9 117.3s8.2 13.4 0 29.5L1111.3 144l-224.7-27.4V82.2z"/><path id="XMLID_4237_" class="st0" d="m1315.6 266.8-199.7-117.1-227.5-24.3V109l230.2 28.8L1319.3 258z"/><path id="XMLID_4234_" class="st0" d="M1318.9 237.3v-4.8L1120 109 888.4 75v14.8l228.2 28.8z"/><g id="XMLID_4225_"><g id="XMLID_4229_"><path id="XMLID_4233_" class="st0" d="M1370.6 645.1s17.5 9.8 16.5 15.4c-1 5.7-35.5 17-57.6 18.5 0 0-7.7 1.5-29.3-11.8 0 0-49.9-5.7-50.9-19.6 0 0 2.1-5.7 7.2-6.2 0 0-11.5-49.8 38.6-70.5 0 0 36.5-8.8 57.1 19.6 19.2 26.6 18.4 54.6 18.4 54.6z"/><path id="XMLID_4230_" class="st0" d="M1328.5 681.2c-3.1 0-11.7-1.2-29.1-12-7.1-.8-51.2-6.6-52.3-21.4 0-.3 0-.6.1-.9.1-.2 2-5.4 6.8-7-1.5-9.8-5.2-52.1 40.2-70.8.1 0 .2-.1.3-.1.4-.1 38.1-8.8 59.3 20.3 17.5 24 18.8 48.7 18.9 54.6 5.3 3 17.5 10.9 16.4 17-1.4 7.9-39.6 18.8-59.4 20.2-.3.1-.6.1-1.2.1zm-77.3-33.2c1.6 8.7 30.7 15.1 49.1 17.2.3 0 .6.1.9.3 20.4 12.6 27.8 11.6 27.8 11.6h.3c23.6-1.6 54.3-13 55.8-16.9.4-2.4-7.8-8.9-15.5-13.2-.7-.4-1.1-1.1-1.1-1.9 0-.3.6-27.6-18.1-53.3-18.9-26-52.4-19.3-54.8-18.8-47.8 19.9-37.3 67.6-37.2 68.1.1.6 0 1.2-.3 1.7s-.9.8-1.5.8c-3.1.3-4.8 3.3-5.4 4.4z"/></g><path id="XMLID_4228_" class="st0" d="M1300.1 669.3c-1.1 0-2-.9-2.1-2-.1-1.1.8-2.1 2-2.2.3 0 32.4-1.6 52.6-7.1 10.1-2.8 13.9-6.3 15.3-8.8 1.1-2 .8-3.5.7-3.5-.3-1.1.3-2.2 1.4-2.5 1.1-.3 2.2.2 2.5 1.3.1.3.9 3.1-.9 6.6-2.5 4.7-8.6 8.4-18 11-20.6 5.7-52.1 7.2-53.5 7.3v-.1z"/><path id="XMLID_4227_" class="st0" d="M1347.6 660.5c3.6-68.7-40.5-86.4-42.4-87.1-.7-.3-1.3-.8-1.6-1.4-.4-.8 6.5-3.3 10.4-.9 13.5 8.3 42.7 32.9 39.8 89.8-.1 1.6-6.3 1.3-6.2-.4z"/><path id="XMLID_4226_" class="st0" d="M1313.1 656.7c-38 0-56.9-12.8-57.9-13.5-.9-.6-1.2-1.9-.5-2.9.6-.9 1.9-1.2 2.9-.5.3.2 31.2 20.9 93 8.9 1.1-.2 2.2.5 2.4 1.6.2 1.1-.5 2.2-1.6 2.4-14.5 2.9-27.2 4-38.3 4z"/></g><g id="XMLID_3834_"><g id="XMLID_4219_"><path id="XMLID_4223_" class="st0" d="m546.8 957.8-13.9 18.5h-1.6l-13.6-18.6v31h-8v-42.6h9.3l13.3 18.3 13.3-18.3h9.2v42.6h-8v-30.9z"/><path id="XMLID_4220_" class="st0" d="M555.6 989.5h-9.5V960l-12.8 17H531l-12.5-17v29.5H509v-44.1h10.4l.2.3 12.7 17.5 13-17.8h10.3v44.1zm-8-1.5h6.6v-41.2H546l-13.7 18.9-13.7-18.9h-8.1V988h6.6v-32.5l14.7 20.1h.8l15-20V988z"/></g><g id="XMLID_4210_"><path id="XMLID_4216_" class="st0" d="M586.3 958.6h7.1v30h-7l-.4-4.4c-1.7 3.5-6.4 5.2-9.7 5.3-8.9.1-15.5-5.4-15.5-16 0-10.4 6.9-15.8 15.7-15.7 4 0 7.9 1.9 9.6 4.9l.2-4.1zm-18 15c0 5.7 4 9.1 8.9 9.1 11.7 0 11.7-18.2 0-18.2-5 .1-8.9 3.4-8.9 9.1z"/><path id="XMLID_4211_" class="st0" d="M576.2 990.3c-4.7 0-8.7-1.5-11.5-4.3-3-2.9-4.5-7.2-4.5-12.4 0-5 1.6-9.1 4.5-12 2.9-2.9 7.1-4.4 11.8-4.4h.1c3.5 0 6.8 1.4 8.9 3.6l.2-2.8h8.6v31.5h-8.4l-.3-3c-2.2 2.5-6 3.8-9.2 3.9-.1-.1-.2-.1-.2-.1zm.2-31.7c-4.4 0-8.1 1.4-10.7 4-2.6 2.6-4 6.4-4 11 0 4.8 1.4 8.7 4.1 11.3 2.6 2.5 6.2 3.9 10.5 3.9h.1c3.3-.1 7.6-1.8 9.1-4.9l1.2-2.4.5 6.4h5.6v-28.5H587l-.3 5.9-1.2-2.2c-1.5-2.7-5.1-4.5-8.9-4.5-.2.1-.2 0-.2 0zm.8 24.9c-5.7 0-9.6-4.1-9.6-9.9 0-5.8 4-9.8 9.6-9.8 6.2 0 9.5 5 9.5 9.8 0 2.6-.8 5-2.4 6.7-1.7 2.1-4.2 3.2-7.1 3.2zm0-18.2c-4.9 0-8.2 3.3-8.2 8.3 0 5 3.3 8.4 8.2 8.4 2.5 0 4.6-.9 6-2.6 1.3-1.5 2-3.6 2-5.8 0-4-2.5-8.3-8-8.3z"/></g><g id="XMLID_4204_"><path id="XMLID_4208_" class="st0" d="M621.8 988.7V973c0-4.6-2.5-8-7.3-8-4.6 0-7.7 3.8-7.7 8.4v15.3h-7.4v-30.1h6.6l.5 4.1c3-3 6.1-4.5 9.9-4.5 7.1 0 12.7 5.3 12.7 14.7v15.8h-7.3z"/><path id="XMLID_4205_" class="st0" d="M630 989.4h-8.9V973c0-3.5-1.7-7.3-6.5-7.3-4 0-6.9 3.3-6.9 7.7v16.1h-8.9v-31.6h8l.4 3.3c3-2.6 5.9-3.7 9.3-3.7 8.1 0 13.5 6.2 13.5 15.5v16.4zm-7.4-1.5h5.9v-15c0-8.4-4.8-14-12-14-3.4 0-6.3 1.3-9.4 4.3l-1.1 1.1-.6-4.9h-5.2V988h5.9v-14.6c0-5.2 3.6-9.2 8.4-9.2 4.9 0 8 3.4 8 8.8v14.9z"/></g><g id="XMLID_4198_"><path id="XMLID_4202_" class="st0" d="M644.8 950.2v8.5h8.3v6.4h-8.3v13c0 2.9 1.6 4.3 3.9 4.3 1.2 0 2.5-.4 3.6-.9l2.1 6.3c-2.1.8-3.9 1.2-6.2 1.3-6.5.2-10.8-3.5-10.8-11v-13h-5.6v-6.4h5.6V951l7.4-.8z"/><path id="XMLID_4199_" class="st0" d="M647.6 989.8c-3.2 0-5.8-1-7.7-2.8-2.1-2-3.2-5.1-3.2-9v-12.2h-5.6V958h5.6v-7.7l8.9-1v8.6h8.3v7.9h-8.3V978c0 2.3 1.1 3.5 3.2 3.5 1 0 2.2-.3 3.3-.8l.8-.4 2.6 7.8-.6.3c-2.2.9-4.1 1.3-6.4 1.3-.5.1-.7.1-.9.1zm-15.1-25.4h5.6v13.7c0 3.5.9 6.1 2.8 7.9 1.7 1.6 4.2 2.4 7.3 2.3 2-.1 3.5-.3 5.3-1l-1.6-4.9c-1.1.4-2.2.6-3.1.6-2.9 0-4.6-1.9-4.6-5v-13.7h8.3v-4.9h-8.3V951l-5.9.6v7.8h-5.6v5z"/></g><g id="XMLID_4189_"><path id="XMLID_4195_" class="st0" d="M665 976.3c.5 3.7 3.7 6.4 9 6.4 2.7 0 6.3-1 8-2.8l4.8 4.7c-3.2 3.3-8.3 4.9-12.9 4.9-10.4 0-16.5-6.4-16.5-16 0-9.1 6.2-15.7 16-15.7 10.1 0 16.3 6.2 15.2 18.6H665zm16.3-6.1c-.5-3.9-3.5-5.8-7.8-5.8-4 0-7.3 1.9-8.4 5.8h16.2z"/><path id="XMLID_4190_" class="st0" d="M673.8 990.2c-10.5 0-17.3-6.6-17.3-16.8 0-9.8 6.7-16.5 16.7-16.5 5.2 0 9.4 1.6 12.1 4.7 3.1 3.4 4.4 8.4 3.8 14.7l-.1.7h-23.2c.8 3.1 3.8 4.9 8.1 4.9 2.4 0 5.9-.9 7.5-2.6l.5-.5 5.8 5.7-.5.5c-2.9 3.3-8.1 5.2-13.4 5.2zm-.5-31.7c-9.1 0-15.2 6-15.2 15 0 9.4 6 15.3 15.8 15.3 4.6 0 9-1.6 11.9-4.1l-3.7-3.7c-2 1.7-5.5 2.5-8 2.5-5.3 0-9.1-2.8-9.7-7l-.1-.8h23.6c.4-5.6-.8-9.9-3.5-12.9-2.6-2.9-6.4-4.3-11.1-4.3zm8.9 12.4h-18l.3-.9c1.1-4 4.5-6.4 9.1-6.4 4.8 0 8 2.4 8.5 6.5l.1.8zm-16-1.5h14.3c-.9-3.8-4.7-4.4-6.9-4.4-3.6.1-6.3 1.6-7.4 4.4z"/></g><g id="XMLID_4183_"><path id="XMLID_4187_" class="st0" d="M716.3 988.7V973c0-4.6-2.5-8-7.2-8-4.6 0-7.7 3.8-7.7 8.4v15.3H694v-30.1h6.6l.5 4.1c3-3 6.1-4.5 9.9-4.5 7.1 0 12.7 5.3 12.7 14.7v15.8h-7.4z"/><path id="XMLID_4184_" class="st0" d="M724.5 989.4h-8.9V973c0-3.5-1.7-7.3-6.5-7.3-4 0-6.9 3.3-6.9 7.7v16.1h-8.9v-31.6h8l.4 3.3c3-2.6 5.9-3.7 9.3-3.7 8.1 0 13.5 6.2 13.5 15.5v16.4zm-7.5-1.5h5.9v-15c0-8.4-4.8-14-12-14-3.4 0-6.3 1.3-9.4 4.3l-1.1 1.1-.6-4.9h-5.2V988h5.9v-14.6c0-5.2 3.6-9.2 8.4-9.2 4.9 0 8 3.4 8 8.8v14.9z"/></g><g id="XMLID_4174_"><path id="XMLID_4180_" class="st0" d="M738.2 950.2c0 5.8-8.8 5.8-8.8 0 .1-5.8 8.8-5.8 8.8 0zm-8.1 8.3v30.2h7.4v-30.2h-7.4z"/><path id="XMLID_4175_" class="st0" d="M738.3 989.4h-8.9v-31.6h8.9v31.6zm-7.4-1.5h5.9v-28.7h-5.9v28.7zm2.9-32.6c-2.5 0-5.1-1.7-5.1-5.1 0-6.7 10.3-6.7 10.3 0 0 3.3-2.6 5.1-5.2 5.1zm0-8.7c-1.8 0-3.6 1.1-3.6 3.6s1.9 3.6 3.6 3.6 3.6-1.1 3.6-3.6c.1-2.5-1.8-3.6-3.6-3.6z"/></g><g id="XMLID_4168_"><path id="XMLID_4172_" class="st0" d="M764.2 988.7v-16.1c0-4-2.1-7.6-6.2-7.6-4 0-6.4 3.6-6.4 7.6v16.1h-7.4v-30.1h6.9l.5 3.7c1.6-3 5.1-4.1 7.9-4.1 3.6 0 7.2 1.5 8.9 5.6 2.7-4.3 6.2-5.5 10.1-5.5 8.5 0 12.7 5.2 12.7 14.3v16.2h-7.4v-16.2c0-4-1.6-7.3-5.7-7.3s-6.5 3.5-6.5 7.4v16.1h-7.4z"/><path id="XMLID_4169_" class="st0" d="M792 989.4h-8.9v-16.9c0-2-.5-6.6-4.9-6.6-3.8 0-5.8 3.4-5.8 6.7v16.8h-8.9v-16.8c0-3.4-1.7-6.8-5.4-6.8s-5.7 3.4-5.7 6.8v16.8h-8.9v-31.6h8.3l.4 2.5c2.4-2.7 6.2-2.9 7.5-2.9 4.1 0 7.2 1.7 9 4.9 2.4-3.2 5.6-4.8 9.9-4.8 8.7 0 13.5 5.3 13.5 15v16.9zm-7.4-1.5h5.9v-15.5c0-6.2-2.1-13.5-12-13.5-4.3 0-7.2 1.6-9.4 5.1l-.8 1.2-.6-1.3c-1.8-4.5-5.9-5.1-8.2-5.1-1.2 0-5.5.3-7.3 3.7l-1.1 2-.8-5.3H745v28.6h5.9v-15.3c0-4.1 2.5-8.3 7.1-8.3 4.1 0 6.9 3.4 6.9 8.3v15.3h5.9v-15.3c0-4.7 3.1-8.2 7.3-8.2 4 0 6.4 3 6.4 8.1v15.5z"/></g><g id="XMLID_4159_"><path id="XMLID_4165_" class="st0" d="M806.9 950.2c0 5.8-8.8 5.8-8.8 0 .1-5.8 8.8-5.8 8.8 0zm-8.1 8.3v30.2h7.4v-30.2h-7.4z"/><path id="XMLID_4160_" class="st0" d="M807 989.4h-8.9v-31.6h8.9v31.6zm-7.4-1.5h5.9v-28.7h-5.9v28.7zm3-32.6c-2.5 0-5.1-1.7-5.1-5.1 0-6.7 10.3-6.7 10.3 0-.1 3.3-2.7 5.1-5.2 5.1zm0-8.7c-1.8 0-3.6 1.1-3.6 3.6s1.9 3.6 3.6 3.6 3.6-1.1 3.6-3.6-1.9-3.6-3.6-3.6z"/></g><g id="XMLID_4150_"><path id="XMLID_4156_" class="st0" d="M819.3 976.3c.5 3.7 3.7 6.4 9 6.4 2.7 0 6.3-1 8-2.8l4.8 4.7c-3.2 3.3-8.3 4.9-12.9 4.9-10.4 0-16.5-6.4-16.5-16 0-9.1 6.2-15.7 16-15.7 10.1 0 16.3 6.2 15.2 18.6h-23.6zm16.3-6.1c-.5-3.9-3.5-5.8-7.8-5.8-4 0-7.3 1.9-8.4 5.8h16.2z"/><path id="XMLID_4151_" class="st0" d="M828.1 990.2c-10.5 0-17.3-6.6-17.3-16.8 0-9.8 6.7-16.5 16.7-16.5 5.2 0 9.4 1.6 12.1 4.7 3.1 3.4 4.4 8.4 3.8 14.7l-.1.7h-23.2c.8 3.1 3.8 4.9 8.1 4.9 2.4 0 5.9-.9 7.5-2.6l.5-.5 5.8 5.7-.5.5c-2.9 3.3-8.1 5.2-13.4 5.2zm-.5-31.7c-9.1 0-15.2 6-15.2 15 0 9.4 6 15.3 15.8 15.3 4.6 0 9-1.6 11.9-4.1l-3.7-3.7c-2 1.7-5.5 2.5-8 2.5-5.3 0-9.1-2.8-9.7-7l-.1-.8h23.6c.4-5.6-.8-9.9-3.5-12.9-2.6-2.9-6.4-4.3-11.1-4.3zm8.9 12.4h-18l.3-.9c1.1-4 4.5-6.4 9.1-6.4 4.8 0 8 2.4 8.5 6.5l.1.8zm-16-1.5h14.3c-.9-3.8-4.7-4.4-6.9-4.4-3.6.1-6.2 1.6-7.4 4.4z"/></g><g id="XMLID_4144_"><path id="XMLID_4148_" class="st0" d="M870.6 988.7V973c0-4.6-2.5-8-7.2-8-4.6 0-7.7 3.8-7.7 8.4v15.3h-7.4v-30.1h6.6l.5 4.1c3-3 6.1-4.5 9.9-4.5 7.1 0 12.7 5.3 12.7 14.7v15.8h-7.4z"/><path id="XMLID_4145_" class="st0" d="M878.8 989.4h-8.9V973c0-3.5-1.7-7.3-6.5-7.3-4 0-6.9 3.3-6.9 7.7v16.1h-8.9v-31.6h8l.4 3.3c3-2.6 5.9-3.7 9.3-3.7 8.1 0 13.5 6.2 13.5 15.5v16.4zm-7.5-1.5h5.9v-15c0-8.4-4.8-14-12-14-3.4 0-6.3 1.3-9.4 4.3l-1.1 1.1-.6-4.9h-5.2V988h5.9v-14.6c0-5.2 3.6-9.2 8.4-9.2 4.9 0 8 3.4 8 8.8v14.9z"/></g><g id="XMLID_4138_"><path id="XMLID_4142_" class="st0" d="M893.6 950.2v8.5h8.3v6.4h-8.3v13c0 2.9 1.6 4.3 3.9 4.3 1.2 0 2.5-.4 3.6-.9l2.1 6.3c-2.1.8-3.9 1.2-6.2 1.3-6.5.2-10.8-3.5-10.8-11v-13h-5.6v-6.4h5.6V951l7.4-.8z"/><path id="XMLID_4139_" class="st0" d="M896.4 989.8c-3.2 0-5.8-1-7.7-2.8-2.1-2-3.2-5.1-3.2-9v-12.2h-5.6V958h5.6v-7.7l8.9-1v8.6h8.3v7.9h-8.3V978c0 2.3 1.1 3.5 3.2 3.5 1 0 2.2-.3 3.3-.8l.8-.4 2.6 7.8-.6.3c-2.2.9-4.1 1.3-6.4 1.3-.5.1-.7.1-.9.1zm-15.1-25.4h5.6v13.7c0 3.5.9 6.1 2.8 7.9 1.7 1.6 4.2 2.4 7.3 2.3 2-.1 3.5-.3 5.3-1l-1.6-4.9c-1.1.4-2.2.6-3.1.6-2.9 0-4.6-1.9-4.6-5v-13.7h8.3v-4.9H893V951l-5.9.6v7.8h-5.6v5z"/></g><g id="XMLID_4129_"><path id="XMLID_4135_" class="st0" d="M937.3 973.7c0 8.7-5.9 15.7-15.7 15.7s-15.6-7-15.6-15.7c0-8.6 6-15.7 15.5-15.7s15.8 7.1 15.8 15.7zm-23.8 0c0 4.6 2.7 8.8 8.2 8.8 5.4 0 8.2-4.3 8.2-8.8 0-4.5-3.2-8.9-8.2-8.9-5.4 0-8.2 4.4-8.2 8.9z"/><path id="XMLID_4130_" class="st0" d="M921.7 990.1c-9.6 0-16.3-6.7-16.3-16.4 0-9.5 6.8-16.4 16.3-16.4s16.5 6.9 16.5 16.4c-.1 9.6-6.9 16.4-16.5 16.4zm-.1-31.3c-8.7 0-14.8 6.1-14.8 14.9s6.1 14.9 14.9 14.9 14.9-6.1 14.9-14.9c0-8.7-6.3-14.9-15-14.9zm.1 24.5c-6.1 0-8.9-5-8.9-9.6 0-4.8 3.1-9.6 8.9-9.6 5.6 0 8.9 4.9 8.9 9.6 0 4.6-2.8 9.6-8.9 9.6zm0-17.8c-5.1 0-7.4 4.2-7.4 8.1 0 4 2.3 8.1 7.4 8.1 5.1 0 7.4-4.1 7.4-8.1 0-3.9-2.8-8.1-7.4-8.1z"/></g><g id="XMLID_4123_"><path id="XMLID_4127_" class="st0" d="M955.3 988.7V946h8v42.6h-8z"/><path id="XMLID_4124_" class="st0" d="M964.1 989.4h-9.5v-44.1h9.5v44.1zm-8-1.5h6.5v-41.2h-6.5v41.2z"/></g><g id="XMLID_4117_"><path id="XMLID_4121_" class="st0" d="M990.3 988.7v-16.1c0-4-2.1-7.6-6.1-7.6-4 0-6.4 3.6-6.4 7.6v16.1h-7.4v-30.1h6.9l.5 3.7c1.6-3 5.1-4.1 7.9-4.1 3.6 0 7.2 1.5 8.9 5.6 2.7-4.3 6.2-5.5 10.1-5.5 8.5 0 12.7 5.2 12.7 14.3v16.2h-7.4v-16.2c0-4-1.7-7.3-5.7-7.3s-6.5 3.5-6.5 7.4v16.1h-7.5z"/><path id="XMLID_4118_" class="st0" d="M1018.1 989.4h-8.9v-16.9c0-2-.5-6.6-4.9-6.6-3.8 0-5.8 3.4-5.8 6.7v16.8h-8.9v-16.8c0-3.4-1.7-6.8-5.4-6.8s-5.7 3.4-5.7 6.8v16.8h-8.9v-31.6h8.3l.4 2.5c2.4-2.7 6.2-2.9 7.5-2.9 4.1 0 7.2 1.7 9 4.9 2.4-3.2 5.6-4.8 9.9-4.8 8.7 0 13.5 5.3 13.5 15v16.9zm-7.4-1.5h5.9v-15.5c0-6.2-2.1-13.5-12-13.5-4.3 0-7.2 1.6-9.4 5.1l-.8 1.2-.6-1.3c-1.8-4.5-5.9-5.1-8.2-5.1-1.2 0-5.5.3-7.3 3.7l-1.1 2-.8-5.3h-5.5v28.6h5.9v-15.3c0-4.1 2.5-8.3 7.1-8.3 4.1 0 6.9 3.4 6.9 8.3v15.3h5.9v-15.3c0-4.7 3.1-8.2 7.3-8.2 4 0 6.4 3 6.4 8.1v15.5z"/></g><g id="XMLID_4108_"><path id="XMLID_4114_" class="st0" d="M1048.7 958.6h7.1v30h-7l-.4-4.4c-1.7 3.5-6.4 5.2-9.7 5.3-8.9.1-15.5-5.4-15.5-16 0-10.4 6.9-15.8 15.7-15.7 4 0 7.9 1.9 9.6 4.9l.2-4.1zm-18 15c0 5.7 4 9.1 8.9 9.1 11.7 0 11.7-18.2 0-18.2-4.9.1-8.9 3.4-8.9 9.1z"/><path id="XMLID_4109_" class="st0" d="M1038.6 990.3c-4.7 0-8.7-1.5-11.5-4.3-3-2.9-4.5-7.2-4.5-12.4 0-5 1.6-9.1 4.5-12 2.9-2.9 7.1-4.4 11.8-4.4h.1c3.5 0 6.8 1.4 8.9 3.6l.2-2.8h8.6v31.5h-8.4l-.3-3c-2.2 2.5-6 3.8-9.2 3.9-.1-.1-.2-.1-.2-.1zm.2-31.7c-4.4 0-8.1 1.4-10.7 4-2.6 2.6-4 6.4-4 11 0 4.8 1.4 8.7 4.1 11.3 2.6 2.5 6.2 3.9 10.5 3.9h.1c3.3-.1 7.6-1.8 9.1-4.9l1.2-2.4.5 6.4h5.6v-28.5h-5.7l-.3 5.9-1.2-2.2c-1.5-2.7-5.1-4.5-8.9-4.5-.2.1-.3 0-.3 0zm.8 24.9c-5.7 0-9.6-4.1-9.6-9.9 0-5.8 4-9.8 9.6-9.8 6.2 0 9.5 5 9.5 9.8 0 2.6-.8 5-2.4 6.7-1.7 2.1-4.2 3.2-7.1 3.2zm0-18.2c-4.9 0-8.2 3.3-8.2 8.3 0 5 3.3 8.4 8.2 8.4 2.5 0 4.6-.9 6-2.6 1.3-1.5 2-3.6 2-5.8 0-4-2.5-8.3-8-8.3z"/></g><g id="XMLID_4099_"><path id="XMLID_4105_" class="st0" d="m1085.7 955.6 5.5 4.1-3.3 4.3c2.3 2.6 3.2 5.6 3.2 8.9 0 3.7-1.4 9-6.3 11.2 5 2.5 6.2 6.1 6.2 9.9 0 8.3-6.3 13.4-15 13.4s-15.2-5.3-15.2-13.4h7.4c0 3.9 3.6 6.5 7.9 6.5s7.6-2.3 7.6-6.5c0-4.1-3.9-6-7.6-6-9.4 0-15.2-5.7-15.2-15.1 0-9.4 6.8-15.2 15.2-15.2 2.4 0 4.8.3 6.9 1.7l2.7-3.8zm-17.7 17.3c0 5.2 3.5 8.3 7.9 8.3 4.3 0 7.8-3.2 7.8-8.3s-3.5-8.5-7.8-8.5c-4.4 0-7.9 3.3-7.9 8.5z"/><path id="XMLID_4100_" class="st0" d="M1075.8 1008.2c-9.4 0-16-5.8-16-14.1v-.7h8.9v.7c0 3.8 3.6 5.7 7.1 5.7 4.2 0 6.9-2.2 6.9-5.7 0-3.7-3.5-5.3-6.9-5.3-9.9 0-16-6.1-16-15.8 0-9.3 6.7-16 16-16 2 0 4.5.2 6.7 1.5l3-3.8 6.7 5-3.4 4.4c2 2.5 3 5.4 3 8.9 0 1.9-.4 8.1-5.5 11.2 4.8 2.9 5.4 7 5.4 9.9-.1 8.4-6.4 14.1-15.9 14.1zm-14.4-13.4c.4 7.1 6.2 11.9 14.5 11.9 8.6 0 14.3-5.1 14.3-12.7 0-3-.7-6.7-5.8-9.3l-1.4-.7 1.4-.6c5.5-2.5 5.9-8.7 5.9-10.5 0-3.4-.9-6.1-3-8.4l-.4-.5 3.3-4.2-4.3-3.2-3 3.7-.6-.4c-2.1-1.4-4.5-1.6-6.5-1.6-8.5 0-14.5 6-14.5 14.5 0 9 5.4 14.4 14.5 14.4 4 0 8.4 2.1 8.4 6.8 0 4.3-3.4 7.2-8.4 7.2-4.6 0-8.1-2.7-8.6-6.5h-5.8zm14.4-12.8c-5.1 0-8.6-3.7-8.6-9.1 0-5.3 3.6-9.2 8.6-9.2s8.5 3.9 8.5 9.2c.1 5.3-3.5 9.1-8.5 9.1zm0-16.8c-4.2 0-7.1 3.2-7.1 7.7s2.9 7.6 7.1 7.6c4.2 0 7.1-3.1 7.1-7.6s-3-7.7-7.1-7.7z"/></g><g id="XMLID_4090_"><path id="XMLID_4096_" class="st0" d="M1102.1 976.3c.5 3.7 3.7 6.4 9 6.4 2.7 0 6.3-1 8-2.8l4.7 4.7c-3.2 3.3-8.3 4.9-12.9 4.9-10.4 0-16.5-6.4-16.5-16 0-9.1 6.2-15.7 16-15.7 10.1 0 16.3 6.2 15.2 18.6h-23.5zm16.3-6.1c-.5-3.9-3.5-5.8-7.8-5.8-4 0-7.3 1.9-8.4 5.8h16.2z"/><path id="XMLID_4091_" class="st0" d="M1110.9 990.2c-10.5 0-17.3-6.6-17.3-16.8 0-9.8 6.7-16.5 16.7-16.5 5.2 0 9.4 1.6 12.1 4.7 3.1 3.4 4.4 8.5 3.8 14.7l-.1.7H1103c.8 3.1 3.8 4.9 8.1 4.9 2.4 0 5.9-.9 7.5-2.6l.5-.5 5.8 5.7-.5.5c-3.1 3.3-8.2 5.2-13.5 5.2zm-.5-31.7c-9.1 0-15.2 6-15.2 15 0 9.4 6 15.3 15.8 15.3 4.6 0 9-1.6 11.8-4.1l-3.7-3.7c-2 1.7-5.5 2.5-8 2.5-5.3 0-9.1-2.8-9.7-7l-.1-.8h23.6c.4-5.6-.7-9.9-3.4-12.9-2.6-2.9-6.4-4.3-11.1-4.3zm8.9 12.4h-18l.3-.9c1.1-4 4.5-6.4 9.1-6.4 4.8 0 8 2.4 8.5 6.5l.1.8zm-16-1.5h14.3c-.9-3.8-4.7-4.4-6.9-4.4-3.6.1-6.3 1.6-7.4 4.4z"/></g><g id="XMLID_4084_"><path id="XMLID_4088_" class="st0" d="M1153.4 988.7V973c0-4.6-2.5-8-7.2-8-4.6 0-7.7 3.8-7.7 8.4v15.3h-7.4v-30.1h6.6l.5 4.1c3-3 6.1-4.5 9.9-4.5 7.1 0 12.7 5.3 12.7 14.7v15.8h-7.4z"/><path id="XMLID_4085_" class="st0" d="M1161.6 989.4h-8.9V973c0-3.5-1.7-7.3-6.5-7.3-3.9 0-6.9 3.3-6.9 7.7v16.1h-8.9v-31.6h8l.4 3.3c3-2.6 5.9-3.7 9.3-3.7 8.1 0 13.5 6.2 13.5 15.5v16.4zm-7.5-1.5h5.9v-15c0-8.4-4.8-14-12-14-3.4 0-6.3 1.3-9.4 4.3l-1.1 1.1-.6-4.9h-5.2V988h5.9v-14.6c0-5.2 3.6-9.2 8.4-9.2 4.9 0 8 3.4 8 8.8v14.9z"/></g><g id="XMLID_4075_"><path id="XMLID_4081_" class="st0" d="M1185.9 976.3c.5 3.7 3.7 6.4 9 6.4 2.7 0 6.3-1 8-2.8l4.8 4.7c-3.2 3.3-8.3 4.9-12.9 4.9-10.4 0-16.5-6.4-16.5-16 0-9.1 6.2-15.7 16-15.7 10 0 16.3 6.2 15.2 18.6h-23.6zm16.3-6.1c-.5-3.9-3.5-5.8-7.8-5.8-4 0-7.3 1.9-8.4 5.8h16.2z"/><path id="XMLID_4076_" class="st0" d="M1194.7 990.2c-10.5 0-17.3-6.6-17.3-16.8 0-9.8 6.7-16.5 16.7-16.5 5.2 0 9.4 1.6 12.1 4.7 3.1 3.4 4.4 8.4 3.8 14.7l-.1.7h-23.2c.8 3.1 3.8 4.9 8.1 4.9 2.4 0 5.9-.9 7.5-2.6l.5-.5 5.8 5.7-.5.5c-3 3.3-8.1 5.2-13.4 5.2zm-.6-31.7c-9.1 0-15.2 6-15.2 15 0 9.4 6 15.3 15.8 15.3 4.6 0 9-1.6 11.8-4.1l-3.7-3.7c-2 1.7-5.5 2.5-8 2.5-5.3 0-9.1-2.8-9.7-7l-.1-.8h23.6c.4-5.5-.8-10-3.5-12.9-2.4-2.9-6.2-4.3-11-4.3zm8.9 12.4h-18l.3-.9c1.1-4 4.5-6.4 9.1-6.4 4.8 0 8 2.4 8.5 6.5l.1.8zm-16-1.5h14.3c-.9-3.8-4.7-4.4-6.9-4.4-3.6.1-6.2 1.6-7.4 4.4z"/></g><g id="XMLID_4069_"><path id="XMLID_4073_" class="st0" d="M1228 988.7V946h8v42.6h-8z"/><path id="XMLID_4070_" class="st0" d="M1236.7 989.4h-9.5v-44.1h9.5v44.1zm-8-1.5h6.5v-41.2h-6.5v41.2z"/></g><g id="XMLID_4063_"><path id="XMLID_4067_" class="st0" d="M1265 988.7V973c0-4.6-2.5-8-7.2-8-4.6 0-7.7 3.8-7.7 8.4v15.3h-7.4v-30.1h6.6l.5 4.1c3-3 6.1-4.5 9.9-4.5 7.1 0 12.7 5.3 12.7 14.7v15.8h-7.4z"/><path id="XMLID_4064_" class="st0" d="M1273.2 989.4h-8.9V973c0-3.5-1.7-7.3-6.5-7.3-3.9 0-6.9 3.3-6.9 7.7v16.1h-8.9v-31.6h8l.4 3.3c3-2.6 5.9-3.7 9.3-3.7 8.1 0 13.5 6.2 13.5 15.5v16.4zm-7.4-1.5h5.9v-15c0-8.4-4.8-14-12-14-3.4 0-6.3 1.3-9.4 4.3l-1.1 1.1-.6-4.9h-5.2V988h5.9v-14.6c0-5.2 3.6-9.2 8.4-9.2 4.9 0 8 3.4 8 8.8v14.9z"/></g><g id="XMLID_4057_"><path id="XMLID_4061_" class="st0" d="M1298.5 966.6c-2.1-2-4.6-2.7-7.4-2.7-3.5 0-5.5 1.1-5.5 3s1.8 3 5.6 3.3c5.7.4 12.9 1.6 12.9 9.6 0 5.3-4.3 9.9-12.9 9.9-4.7 0-9.5-.8-13.9-5.4l3.7-5.3c2.1 2.4 7 4.1 10.4 4.2 2.8.1 5.4-1.4 5.4-3.6 0-2.1-1.7-2.9-6-3.2-5.7-.4-12.4-2.5-12.4-9.3 0-6.9 7.2-9.4 12.7-9.4 4.7 0 8.2.9 11.7 4l-4.3 4.9z"/><path id="XMLID_4058_" class="st0" d="M1291.1 990.5c-4.5 0-9.7-.7-14.4-5.6l-.4-.4 4.5-6.6.6.7c2 2.3 6.8 3.9 9.8 4h.2c1.5 0 3-.5 3.8-1.3.5-.5.7-1 .7-1.5 0-1.1-.4-2.2-5.3-2.4-8.5-.6-13.1-4.2-13.1-10.1 0-7 6.7-10.1 13.4-10.1 5.3 0 8.8 1.2 12.2 4.1l.5.5-5.1 6-.6-.5c-1.8-1.7-3.9-2.5-6.9-2.5-1.4 0-4.7.2-4.7 2.2 0 .6 0 2.2 4.9 2.6 3.7.2 13.5.9 13.5 10.4.1 5.1-4.2 10.5-13.6 10.5zm-12.9-6.2c4.2 4.1 8.7 4.7 12.9 4.7 7.4 0 12.2-3.6 12.2-9.1 0-7.1-6.1-8.5-12.2-8.9-1.6-.1-6.3-.4-6.3-4 0-1.1.6-3.7 6.2-3.7 3 0 5.4.8 7.4 2.4l3.2-3.7c-2.9-2.4-6-3.3-10.7-3.3-4.4 0-11.9 1.8-11.9 8.6 0 6.4 6.4 8.2 11.7 8.6 3.4.2 6.7.8 6.7 3.9 0 1-.4 1.9-1.2 2.6-1.1 1.1-2.9 1.7-4.8 1.7h-.2c-3.1-.1-7.6-1.5-10.2-3.8l-2.8 4z"/></g><g id="XMLID_4051_"><path id="XMLID_4055_" class="st0" d="M1319.3 950.2v8.5h8.3v6.4h-8.3v13c0 2.9 1.6 4.3 3.9 4.3 1.2 0 2.5-.4 3.6-.9l2.1 6.3c-2.1.8-3.9 1.2-6.2 1.3-6.5.2-10.8-3.5-10.8-11v-13h-5.6v-6.4h5.6V951l7.4-.8z"/><path id="XMLID_4052_" class="st0" d="M1322 989.8c-3.2 0-5.8-1-7.7-2.8-2.1-2-3.2-5.1-3.2-9v-12.2h-5.6V958h5.6v-7.7l8.9-1v8.6h8.3v7.9h-8.3V978c0 2.3 1.1 3.5 3.2 3.5 1 0 2.2-.3 3.3-.8l.8-.4 2.6 7.8-.6.3c-2.2.9-4.1 1.3-6.4 1.3-.5.1-.7.1-.9.1zm-15-25.4h5.6v13.7c0 3.5.9 6.1 2.8 7.9 1.6 1.5 3.9 2.3 6.7 2.3h.5c2-.1 3.5-.3 5.3-1l-1.6-4.9c-1 .4-2.2.6-3.1.6-2.9 0-4.6-1.9-4.6-5v-13.7h8.3v-4.9h-8.3V951l-5.9.6v7.8h-5.6v5z"/></g><g id="XMLID_4042_"><path id="XMLID_4048_" class="st0" d="M1356.9 958.6h7.1v30h-7l-.4-4.4c-1.7 3.5-6.4 5.2-9.7 5.3-8.9.1-15.5-5.4-15.5-16 0-10.4 6.9-15.8 15.7-15.7 4 0 7.9 1.9 9.6 4.9l.2-4.1zm-18 15c0 5.7 4 9.1 8.9 9.1 11.7 0 11.7-18.2 0-18.2-5 .1-8.9 3.4-8.9 9.1z"/><path id="XMLID_4043_" class="st0" d="M1346.8 990.3c-4.7 0-8.7-1.5-11.6-4.3-3-2.9-4.5-7.2-4.5-12.4 0-5 1.6-9.1 4.5-12 2.9-2.9 7.1-4.4 11.8-4.4h.1c3.5 0 6.8 1.4 8.9 3.6l.2-2.8h8.6v31.5h-8.4l-.3-3c-2.2 2.5-6 3.8-9.2 3.9 0-.1-.1-.1-.1-.1zm.2-31.7c-4.4 0-8.1 1.4-10.7 4-2.6 2.6-4 6.4-4 11 0 4.8 1.4 8.7 4.1 11.3 2.6 2.5 6.2 3.9 10.5 3.9h.1c3.3-.1 7.6-1.8 9.1-4.9l1.2-2.4.5 6.4h5.6v-28.5h-5.7l-.3 5.9-1.2-2.2c-1.5-2.7-5.1-4.5-8.9-4.5-.2.1-.3 0-.3 0zm.8 24.9c-5.7 0-9.6-4.1-9.6-9.9 0-5.8 4-9.8 9.6-9.8 6.2 0 9.5 5 9.5 9.8 0 2.6-.8 5-2.4 6.7-1.7 2.1-4.2 3.2-7.1 3.2zm0-18.2c-4.9 0-8.2 3.3-8.2 8.3 0 5 3.3 8.4 8.2 8.4 2.5 0 4.6-.9 6-2.6 1.3-1.5 2-3.6 2-5.8 0-4-2.5-8.3-8-8.3z"/></g><g id="XMLID_4036_"><path id="XMLID_4040_" class="st0" d="M1377.7 946.1v42.6h-7.4v-42.6h7.4z"/><path id="XMLID_4037_" class="st0" d="M1378.4 989.4h-8.9v-44.1h8.9v44.1zm-7.3-1.5h5.9v-41.1h-5.9v41.1z"/></g><g id="XMLID_4027_"><path id="XMLID_4033_" class="st0" d="M1408 958.6h7.1v30h-7l-.4-4.4c-1.7 3.5-6.4 5.2-9.7 5.3-8.9.1-15.5-5.4-15.5-16 0-10.4 6.9-15.8 15.7-15.7 4 0 7.9 1.9 9.6 4.9l.2-4.1zm-18 15c0 5.7 4 9.1 8.9 9.1 11.7 0 11.7-18.2 0-18.2-5 .1-8.9 3.4-8.9 9.1z"/><path id="XMLID_4028_" class="st0" d="M1397.9 990.3c-4.7 0-8.7-1.5-11.5-4.3-3-2.9-4.5-7.2-4.5-12.4 0-5 1.6-9.1 4.5-12 2.9-2.9 7.1-4.4 11.8-4.4h.1c3.5 0 6.8 1.4 8.9 3.6l.2-2.8h8.6v31.5h-8.4l-.3-3c-2.2 2.5-6 3.8-9.2 3.9-.1-.1-.2-.1-.2-.1zm.2-31.7c-4.4 0-8.1 1.4-10.7 4-2.6 2.6-4 6.4-4 11 0 4.8 1.4 8.7 4.1 11.3 2.6 2.6 6.2 4 10.6 3.9 3.3-.1 7.6-1.8 9.1-4.9l1.2-2.4.5 6.4h5.6v-28.5h-5.7l-.3 5.9-1.2-2.2c-1.5-2.7-5.1-4.5-8.9-4.5-.2.1-.3 0-.3 0zm.8 24.9c-5.7 0-9.6-4.1-9.6-9.9 0-5.8 4-9.8 9.6-9.8 6.2 0 9.5 5 9.5 9.8 0 2.6-.8 5-2.4 6.7-1.7 2.1-4.2 3.2-7.1 3.2zm0-18.2c-4.9 0-8.2 3.3-8.2 8.3 0 5 3.3 8.4 8.2 8.4 2.5 0 4.6-.9 6-2.6 1.3-1.5 2-3.6 2-5.8 0-4-2.5-8.3-8-8.3z"/></g><g id="XMLID_4021_"><path id="XMLID_4025_" class="st0" d="M1447.9 984.8c-3.5 3.4-7.1 4.7-11.6 4.7-8.7 0-16-5.2-16-15.9s7.2-15.9 16-15.9c4.3 0 7.6 1.2 10.8 4.4l-4.7 4.9c-1.8-1.6-4-2.4-6-2.4-5 0-8.7 3.7-8.7 8.9 0 5.7 3.9 8.8 8.5 8.8 2.4 0 4.7-.7 6.6-2.5l5.1 5z"/><path id="XMLID_4022_" class="st0" d="M1436.3 990.3c-10.1 0-16.7-6.5-16.7-16.6s6.6-16.6 16.7-16.6c4.6 0 8 1.4 11.4 4.7l.5.5-5.7 6-.5-.5c-1.6-1.4-3.6-2.2-5.5-2.2-4.7 0-7.9 3.3-7.9 8.1 0 5.9 4.2 8 7.8 8 2.5 0 4.5-.8 6.1-2.3l.5-.5 6.1 5.9-.5.5c-3.7 3.5-7.4 5-12.3 5zm0-31.8c-7.4 0-15.2 4-15.2 15.2s7.9 15.2 15.2 15.2c4.2 0 7.5-1.2 10.5-4l-3.9-3.8c-1.7 1.5-4 2.2-6.6 2.2-4.6 0-9.3-2.9-9.3-9.5 0-5.6 4-9.6 9.4-9.6 2.1 0 4.2.8 6 2.1l3.7-3.9c-2.9-2.7-5.8-3.9-9.8-3.9z"/></g><g id="XMLID_4012_"><path id="XMLID_4018_" class="st0" d="M1459.3 950.2c0 5.8-8.8 5.8-8.8 0s8.8-5.8 8.8 0zm-8.2 8.3v30.2h7.4v-30.2h-7.4z"/><path id="XMLID_4013_" class="st0" d="M1459.3 989.4h-8.9v-31.6h8.9v31.6zm-7.4-1.5h5.9v-28.7h-5.9v28.7zm3-32.6c-2.5 0-5.1-1.7-5.1-5.1 0-6.7 10.3-6.7 10.3 0-.1 3.3-2.7 5.1-5.2 5.1zm0-8.7c-1.7 0-3.6 1.1-3.6 3.6s1.9 3.6 3.6 3.6c1.8 0 3.6-1.1 3.6-3.6s-1.9-3.6-3.6-3.6z"/></g><g id="XMLID_4000_"><path id="XMLID_4008_" class="st0" d="M1480.1 958c9.6 0 15.7 7.1 15.7 15.7 0 8.7-5.9 15.7-15.7 15.7s-15.6-7-15.6-15.7c.1-8.6 6-15.7 15.6-15.7zm0 6.8c-5.4 0-8.2 4.4-8.2 8.9 0 4.6 2.7 8.8 8.2 8.8s8.2-4.3 8.2-8.8c0-4.5-3.2-8.9-8.2-8.9zm9.6-19h-8.8l-4.5 8.3v.4h6.6l6.7-8.3v-.4z"/><path id="XMLID_4001_" class="st0" d="M1480.1 990.1c-9.6 0-16.3-6.7-16.3-16.4 0-9.5 6.9-16.4 16.3-16.4 9.5 0 16.5 6.9 16.5 16.4-.1 9.6-6.8 16.4-16.5 16.4zm0-31.3c-8.6 0-14.8 6.3-14.8 14.9 0 8.8 6.1 14.9 14.9 14.9s14.9-6.1 14.9-14.9c0-8.7-6.3-14.9-15-14.9zm0 24.5c-6.1 0-8.9-5-8.9-9.6 0-4.8 3.1-9.6 8.9-9.6 5.6 0 8.9 4.9 8.9 9.6.1 4.6-2.7 9.6-8.9 9.6zm0-17.8c-5.1 0-7.4 4.2-7.4 8.1 0 4 2.3 8.1 7.4 8.1s7.4-4.1 7.4-8.1c.1-3.9-2.7-8.1-7.4-8.1zm3.3-10.3h-7.7v-1.3l.1-.2 4.7-8.7h10v1.3l-7.1 8.9zm-5.9-1.5h5.2l5.8-7.2h-7l-4 7.2z"/></g><g id="XMLID_3994_"><path id="XMLID_3998_" class="st0" d="M1523 988.7V973c0-4.6-2.5-8-7.2-8-4.6 0-7.7 3.8-7.7 8.4v15.3h-7.4v-30.1h6.6l.5 4.1c3-3 6.1-4.5 9.9-4.5 7.1 0 12.7 5.3 12.7 14.7v15.8h-7.4z"/><path id="XMLID_3995_" class="st0" d="M1531.2 989.4h-8.9V973c0-3.5-1.7-7.3-6.5-7.3-3.9 0-6.9 3.3-6.9 7.7v16.1h-8.9v-31.6h8l.4 3.3c3-2.6 5.9-3.7 9.3-3.7 8.1 0 13.5 6.2 13.5 15.5v16.4zm-7.4-1.5h5.9v-15c0-8.4-4.8-14-12-14-3.4 0-6.3 1.3-9.4 4.3l-1.1 1.1-.6-4.9h-5.2V988h5.9v-14.6c0-5.2 3.6-9.2 8.4-9.2 4.9 0 8 3.4 8 8.8v14.9z"/></g><g id="XMLID_3985_"><path id="XMLID_3991_" class="st0" d="M868 1031.7h7.1v30h-7l-.4-4.4c-1.7 3.5-6.4 5.2-9.7 5.3-8.9.1-15.5-5.4-15.5-16 0-10.4 6.9-15.8 15.7-15.7 4 0 7.9 1.9 9.6 4.9l.2-4.1zm-18 15c0 5.7 4 9.1 8.9 9.1 11.7 0 11.7-18.2 0-18.2-4.9 0-8.9 3.4-8.9 9.1z"/><path id="XMLID_3986_" class="st0" d="M857.9 1063.4c-4.7 0-8.7-1.5-11.5-4.3-3-2.9-4.5-7.2-4.5-12.4 0-5 1.6-9.1 4.5-12 2.9-2.9 7.1-4.5 11.9-4.4 3.5 0 6.8 1.4 8.9 3.6l.2-2.8h8.6v31.5h-8.4l-.3-3c-2.2 2.5-6 3.8-9.2 3.9-.1-.1-.1-.1-.2-.1zm.2-31.7c-4.4 0-8.1 1.4-10.7 4-2.6 2.6-4 6.4-4 11 0 4.8 1.4 8.7 4.1 11.3 2.6 2.5 6.2 3.9 10.5 3.9h.1c3.3-.1 7.6-1.8 9.1-4.9l1.2-2.4.5 6.4h5.6v-28.5h-5.7l-.3 5.9-1.2-2.2c-1.7-2.7-5.4-4.5-9.2-4.5zm.8 24.9c-5.7 0-9.6-4.1-9.6-9.9 0-5.8 4-9.8 9.6-9.8 6.2 0 9.5 5 9.5 9.9 0 2.6-.8 5-2.4 6.7-1.7 2-4.2 3.1-7.1 3.1zm0-18.2c-4.9 0-8.2 3.3-8.2 8.3 0 5 3.3 8.4 8.2 8.4 2.5 0 4.6-.9 6-2.6 1.3-1.5 2-3.6 2-5.8 0-4-2.5-8.3-8-8.3z"/></g><g id="XMLID_3979_"><path id="XMLID_3983_" class="st0" d="M926.1 1061.8h-31.9v-42.6h31.9v7.8h-23.9v9.8h23.1v7.5h-23.1v9.6h23.9v7.9z"/><path id="XMLID_3980_" class="st0" d="M926.8 1062.5h-33.4v-44.1h33.4v9.3h-23.9v8.3H926v9h-23.1v8.1h23.9v9.4zm-31.9-1.5h30.4v-6.4h-23.9v-11.1h23.1v-6h-23.1v-11.3h23.9v-6.3h-30.4v41.1z"/></g><g id="XMLID_3973_"><path id="XMLID_3977_" class="st0" d="M952 1039.7c-2.1-2-4.6-2.7-7.4-2.7-3.5 0-5.5 1.1-5.5 3s1.8 3 5.6 3.3c5.7.4 12.9 1.6 12.9 9.6 0 5.3-4.3 9.9-12.9 9.9-4.8 0-9.5-.8-13.9-5.4l3.7-5.3c2.1 2.4 7 4.1 10.4 4.2 2.8.1 5.4-1.4 5.4-3.6 0-2.1-1.7-2.9-6-3.2-5.7-.4-12.4-2.5-12.4-9.3 0-6.9 7.2-9.4 12.7-9.4 4.7 0 8.2.9 11.7 4l-4.3 4.9z"/><path id="XMLID_3974_" class="st0" d="M944.6 1063.6c-4.5 0-9.7-.7-14.4-5.6l-.4-.4 4.5-6.6.6.7c2 2.3 6.8 3.9 9.8 4h.2c1.5 0 3-.5 3.8-1.3.5-.5.7-1 .7-1.5 0-1.1-.4-2.1-5.3-2.4-8.5-.6-13.1-4.2-13.1-10.1 0-7 6.7-10.1 13.4-10.1 5.3 0 8.8 1.2 12.2 4.1l.5.5-5.1 6-.6-.5c-1.8-1.7-3.9-2.5-6.9-2.5-1.4 0-4.7.2-4.7 2.2 0 .6 0 2.2 4.9 2.6 3.7.2 13.5.9 13.5 10.4.1 5.1-4.1 10.5-13.6 10.5zm-12.9-6.2c4.2 4.1 8.7 4.7 12.9 4.7 7.4 0 12.2-3.6 12.2-9.1 0-7.1-6.1-8.5-12.2-8.9-1.6-.1-6.3-.4-6.3-4 0-1.1.6-3.7 6.2-3.7 3 0 5.4.8 7.4 2.4l3.2-3.7c-2.9-2.4-6-3.3-10.7-3.3-4.4 0-11.9 1.8-11.9 8.6 0 6.4 6.4 8.2 11.7 8.6 3.5.2 6.7.8 6.7 3.9 0 1-.4 1.9-1.2 2.6-1.1 1.1-2.9 1.7-4.8 1.7h-.2c-3.1-.1-7.6-1.5-10.2-3.8l-2.8 4z"/></g><g id="XMLID_3967_"><path id="XMLID_3971_" class="st0" d="M972.8 1023.3v8.5h8.3v6.4h-8.3v13c0 2.9 1.6 4.3 3.9 4.3 1.2 0 2.5-.4 3.6-.9l2.1 6.3c-2.1.8-3.9 1.2-6.2 1.3-6.5.2-10.8-3.5-10.8-11v-13h-5.6v-6.4h5.6v-7.7l7.4-.8z"/><path id="XMLID_3968_" class="st0" d="M975.5 1062.9c-3.2 0-5.8-1-7.7-2.8-2.1-2-3.2-5.1-3.2-9v-12.2H959v-7.9h5.6v-7.7l8.9-1v8.6h8.3v7.9h-8.3v12.2c0 2.3 1.1 3.5 3.2 3.5 1 0 2.2-.3 3.3-.8l.8-.4 2.6 7.8-.6.3c-2.2.9-4.1 1.3-6.4 1.3-.5.2-.7.2-.9.2zm-15-25.4h5.6v13.7c0 3.5.9 6.1 2.8 7.9 1.7 1.6 4.3 2.5 7.2 2.3 2-.1 3.5-.3 5.3-1l-1.6-4.9c-1 .4-2.2.6-3.1.6-2.9 0-4.6-1.9-4.6-5v-13.7h8.3v-4.9H972v-8.4l-5.9.6v7.8h-5.6v5z"/></g><g id="XMLID_3958_"><path id="XMLID_3964_" class="st0" d="M1010.4 1031.7h7.1v30h-7l-.4-4.4c-1.7 3.5-6.4 5.2-9.7 5.3-8.9.1-15.5-5.4-15.5-16 0-10.4 6.9-15.8 15.7-15.7 4 0 7.9 1.9 9.6 4.9l.2-4.1zm-18 15c0 5.7 4 9.1 8.9 9.1 11.7 0 11.7-18.2 0-18.2-5 0-8.9 3.4-8.9 9.1z"/><path id="XMLID_3959_" class="st0" d="M1000.3 1063.4c-4.7 0-8.7-1.5-11.5-4.3-3-2.9-4.5-7.2-4.5-12.4 0-5 1.6-9.1 4.5-12 2.9-2.9 7.1-4.4 11.8-4.4 3.6 0 6.9 1.3 9.1 3.6l.2-2.8h8.6v31.5h-8.4l-.3-3c-2.2 2.5-6 3.8-9.2 3.9-.2-.1-.3-.1-.3-.1zm.2-31.7c-4.4 0-8.1 1.4-10.7 4-2.6 2.6-4 6.4-4 11 0 4.8 1.4 8.7 4.1 11.3 2.6 2.5 6.2 3.9 10.5 3.9h.1c3.3-.1 7.6-1.8 9.1-4.9l1.2-2.4.5 6.4h5.6v-28.5h-5.7l-.3 5.9-1.2-2.2c-1.5-2.7-5.1-4.5-8.9-4.5-.2.1-.3 0-.3 0zm.8 24.9c-5.7 0-9.6-4.1-9.6-9.9 0-5.8 4-9.8 9.6-9.8 6.2 0 9.5 5 9.5 9.9 0 2.6-.8 5-2.4 6.7-1.7 2-4.2 3.1-7.1 3.1zm0-18.2c-4.9 0-8.2 3.3-8.2 8.3 0 5 3.3 8.4 8.2 8.4 2.5 0 4.6-.9 6-2.6 1.3-1.5 2-3.6 2-5.8 0-4-2.5-8.3-8-8.3z"/></g><g id="XMLID_3952_"><path id="XMLID_3956_" class="st0" d="M1050.3 1057.9c-3.5 3.4-7.1 4.7-11.6 4.7-8.7 0-16-5.2-16-15.9s7.2-15.9 16-15.9c4.3 0 7.5 1.2 10.8 4.4l-4.7 4.9c-1.8-1.6-4-2.4-6-2.4-5 0-8.6 3.7-8.6 8.9 0 5.7 3.9 8.8 8.5 8.8 2.4 0 4.7-.7 6.6-2.5l5 5z"/><path id="XMLID_3953_" class="st0" d="M1038.7 1063.4c-10.1 0-16.7-6.5-16.7-16.6s6.6-16.6 16.7-16.6c4.6 0 8 1.4 11.4 4.7l.5.5-5.7 6-.5-.5c-1.6-1.4-3.6-2.2-5.5-2.2-4.7 0-7.9 3.3-7.9 8.1 0 5.9 4.2 8 7.8 8 2.5 0 4.5-.8 6.1-2.3l.5-.5 6.1 5.9-.5.5c-3.7 3.5-7.4 5-12.3 5zm0-31.8c-7.4 0-15.2 4-15.2 15.2s7.9 15.2 15.2 15.2c4.2 0 7.5-1.2 10.5-4l-3.9-3.8c-1.7 1.5-4 2.2-6.6 2.2-4.6 0-9.3-2.9-9.3-9.5 0-5.6 3.9-9.6 9.4-9.6 2.1 0 4.2.7 6 2.1l3.7-3.9c-2.9-2.7-5.9-3.9-9.8-3.9z"/></g><g id="XMLID_3943_"><path id="XMLID_3949_" class="st0" d="M1061.7 1023.3c0 5.8-8.8 5.8-8.8 0s8.8-5.8 8.8 0zm-8.2 8.3v30.2h7.4v-30.2h-7.4z"/><path id="XMLID_3944_" class="st0" d="M1061.7 1062.5h-8.9v-31.6h8.9v31.6zm-7.4-1.5h5.9v-28.7h-5.9v28.7zm3-32.6c-2.5 0-5.1-1.7-5.1-5.1 0-6.7 10.3-6.7 10.3 0-.1 3.3-2.7 5.1-5.2 5.1zm0-8.7c-1.7 0-3.6 1.1-3.6 3.6s1.9 3.6 3.6 3.6c1.8 0 3.6-1.1 3.6-3.6s-1.9-3.6-3.6-3.6z"/></g><g id="XMLID_3934_"><path id="XMLID_3940_" class="st0" d="M1098.2 1046.8c0 8.7-5.9 15.7-15.7 15.7s-15.6-7-15.6-15.7c0-8.6 6-15.7 15.5-15.7s15.8 7.1 15.8 15.7zm-23.8 0c0 4.6 2.7 8.8 8.2 8.8 5.4 0 8.2-4.3 8.2-8.8 0-4.5-3.2-8.9-8.2-8.9-5.4 0-8.2 4.4-8.2 8.9z"/><path id="XMLID_3935_" class="st0" d="M1082.5 1063.2c-9.6 0-16.3-6.7-16.3-16.4 0-9.5 6.8-16.4 16.3-16.4s16.5 6.9 16.5 16.4c-.1 9.6-6.8 16.4-16.5 16.4zm0-31.3c-8.7 0-14.8 6.1-14.8 14.9s6.1 14.9 14.9 14.9 14.9-6.1 14.9-14.9c0-8.7-6.3-14.9-15-14.9zm0 24.5c-6.1 0-8.9-5-8.9-9.6 0-4.8 3.1-9.6 8.9-9.6 5.6 0 8.9 4.9 8.9 9.6 0 4.6-2.7 9.6-8.9 9.6zm0-17.8c-5.1 0-7.4 4.2-7.4 8.1 0 4 2.3 8.1 7.4 8.1 5.1 0 7.4-4.1 7.4-8.1.1-3.9-2.7-8.1-7.4-8.1z"/></g><g id="XMLID_3928_"><path id="XMLID_3932_" class="st0" d="M1125.4 1061.8v-15.7c0-4.6-2.5-8-7.2-8-4.6 0-7.7 3.8-7.7 8.4v15.4h-7.4v-30.1h6.6l.5 4.1c3-3 6.1-4.5 9.9-4.5 7.1 0 12.7 5.3 12.7 14.7v15.8h-7.4z"/><path id="XMLID_3929_" class="st0" d="M1133.6 1062.5h-8.9V1046c0-3.5-1.7-7.3-6.5-7.3-3.9 0-6.9 3.3-6.9 7.7v16.1h-8.9v-31.6h8l.4 3.3c3-2.6 5.9-3.7 9.3-3.7 8.1 0 13.5 6.2 13.5 15.5v16.5zm-7.4-1.5h5.9v-15c0-8.4-4.8-14-12-14-3.4 0-6.3 1.3-9.4 4.3l-1.1 1.1-.6-4.9h-5.2v28.6h5.9v-14.6c0-5.2 3.6-9.1 8.4-9.1 4.9 0 8 3.4 8 8.8v14.8z"/></g><g id="XMLID_3919_"><path id="XMLID_3925_" class="st0" d="M1145.6 1049.4c.5 3.7 3.7 6.4 9 6.4 2.7 0 6.3-1 8-2.8l4.7 4.7c-3.2 3.3-8.3 4.9-12.9 4.9-10.4 0-16.5-6.4-16.5-16 0-9.1 6.2-15.7 16-15.7 10.1 0 16.3 6.2 15.2 18.6h-23.5zm16.3-6.1c-.5-3.9-3.5-5.8-7.8-5.8-4 0-7.3 1.9-8.4 5.8h16.2z"/><path id="XMLID_3920_" class="st0" d="M1154.4 1063.3c-10.5 0-17.3-6.6-17.3-16.8 0-9.8 6.7-16.5 16.7-16.5 5.2 0 9.4 1.6 12.1 4.7 3.1 3.4 4.4 8.4 3.8 14.7l-.1.7h-23.2c.8 3.1 3.8 4.9 8.1 4.9 2.4 0 5.9-.9 7.5-2.6l.5-.5 5.8 5.7-.5.5c-3 3.3-8.1 5.2-13.4 5.2zm-.5-31.7c-9.1 0-15.2 6-15.2 15 0 9.4 6 15.3 15.8 15.3 4.6 0 9-1.6 11.8-4.1l-3.7-3.7c-2 1.7-5.5 2.5-8 2.5-5.3 0-9.1-2.8-9.7-7l-.1-.8h23.6c.4-5.6-.7-9.9-3.4-12.9-2.6-2.9-6.4-4.3-11.1-4.3zm8.9 12.4h-18l.3-.9c1.1-4 4.5-6.4 9.1-6.4 4.8 0 8 2.4 8.5 6.5l.1.8zm-16-1.5h14.3c-.9-3.8-4.7-4.4-6.9-4.4-3.6.1-6.3 1.6-7.4 4.4z"/></g><g id="XMLID_3913_"><path id="XMLID_3917_" class="st0" d="M1194.4 1039.7c-2.1-2-4.6-2.7-7.4-2.7-3.5 0-5.5 1.1-5.5 3s1.8 3 5.6 3.3c5.7.4 12.9 1.6 12.9 9.6 0 5.3-4.3 9.9-12.9 9.9-4.8 0-9.5-.8-13.9-5.4l3.7-5.3c2.1 2.4 7 4.1 10.4 4.2 2.8.1 5.4-1.4 5.4-3.6 0-2.1-1.7-2.9-6-3.2-5.7-.4-12.4-2.5-12.4-9.3 0-6.9 7.2-9.4 12.7-9.4 4.7 0 8.2.9 11.7 4l-4.3 4.9z"/><path id="XMLID_3914_" class="st0" d="M1187 1063.6c-4.5 0-9.7-.7-14.4-5.6l-.4-.4 4.5-6.6.6.7c2 2.3 6.8 3.9 9.8 4h.2c1.5 0 3-.5 3.8-1.3.5-.5.7-1 .7-1.5 0-1.1-.4-2.1-5.3-2.4-8.5-.6-13.1-4.2-13.1-10.1 0-7 6.7-10.1 13.4-10.1 5.3 0 8.8 1.2 12.2 4.1l.6.5-5.1 6-.6-.5c-1.8-1.7-3.9-2.5-6.9-2.5-1.4 0-4.7.2-4.7 2.2 0 .6 0 2.2 4.9 2.6 3.7.2 13.5.9 13.5 10.4 0 5.1-4.3 10.5-13.7 10.5zm-12.9-6.2c4.2 4.1 8.7 4.7 12.9 4.7 7.4 0 12.2-3.6 12.2-9.1 0-7.1-6.1-8.5-12.2-8.9-1.6-.1-6.3-.4-6.3-4 0-1.1.6-3.7 6.2-3.7 3 0 5.4.8 7.4 2.4l3.2-3.7c-2.9-2.4-6-3.3-10.7-3.3-4.4 0-11.9 1.8-11.9 8.6 0 6.4 6.4 8.2 11.7 8.6 3.5.2 6.7.8 6.7 3.9 0 1-.4 1.9-1.2 2.6-1.1 1.1-2.9 1.7-4.8 1.7h-.2c-3.1-.1-7.6-1.5-10.2-3.8l-2.8 4z"/></g><g id="XMLID_3904_"><path id="XMLID_3910_" class="st0" d="M1248.2 1019.2v42.6h-6.9l-.5-4.1c-2.3 3.6-6 4.8-9.7 4.8-8.8 0-15.5-5.8-15.5-15.7 0-10.4 6.5-15.7 15.3-15.7 3.2 0 8.1 1.7 9.9 4.8v-16.6h7.4zm-25.2 27.5c0 5.2 3.8 8.8 8.5 8.8s8.7-3.4 8.7-8.8c0-5.2-4-8.8-8.7-8.8-4.7.1-8.5 3.4-8.5 8.8z"/><path id="XMLID_3905_" class="st0" d="M1231.1 1063.2c-9.7 0-16.2-6.6-16.2-16.5 0-10.2 6.1-16.5 16-16.5 2.5 0 6.6 1.1 9.1 3.5v-15.3h8.9v44.1h-8.3l-.3-3c-2.8 3-6.5 3.7-9.2 3.7zm-.2-31.4c-9 0-14.5 5.7-14.5 15 0 9 5.9 15 14.7 15 2.8 0 6.7-.8 9.1-4.5l1.1-1.7.6 5.5h5.5V1020h-5.9v18.7l-1.4-2.4c-1.6-3-6.4-4.5-9.2-4.5zm.6 24.5c-5.3 0-9.3-4.1-9.3-9.6 0-5.6 3.8-9.5 9.3-9.5 5.4 0 9.5 4.1 9.5 9.5 0 5.6-4 9.6-9.5 9.6zm0-17.6c-4.6 0-7.8 3.3-7.8 8s3.3 8.1 7.8 8.1c4 0 8-2.8 8-8.1 0-4.5-3.4-8-8-8z"/></g><g id="XMLID_3895_"><path id="XMLID_3901_" class="st0" d="M1261.6 1049.4c.5 3.7 3.7 6.4 9 6.4 2.7 0 6.3-1 8-2.8l4.7 4.7c-3.2 3.3-8.3 4.9-12.9 4.9-10.4 0-16.5-6.4-16.5-16 0-9.1 6.2-15.7 16-15.7 10.1 0 16.3 6.2 15.2 18.6h-23.5zm16.4-6.1c-.5-3.9-3.5-5.8-7.8-5.8-4 0-7.3 1.9-8.4 5.8h16.2z"/><path id="XMLID_3896_" class="st0" d="M1270.5 1063.3c-10.5 0-17.3-6.6-17.3-16.8 0-9.8 6.7-16.5 16.7-16.5 5.2 0 9.4 1.6 12.1 4.7 3.1 3.4 4.4 8.4 3.8 14.7l-.1.7h-23.2c.8 3.1 3.8 4.9 8.1 4.9 2.4 0 5.9-.9 7.5-2.6l.5-.5 5.8 5.7-.5.5c-3 3.3-8.2 5.2-13.4 5.2zm-.6-31.7c-9.1 0-15.2 6-15.2 15 0 9.4 6 15.3 15.8 15.3 4.6 0 9-1.6 11.8-4.1l-3.7-3.7c-2 1.7-5.5 2.5-8 2.5-5.3 0-9.1-2.8-9.7-7l-.1-.8h23.6c.4-5.6-.7-9.9-3.4-12.9-2.5-2.9-6.4-4.3-11.1-4.3zm8.9 12.4h-18l.3-.9c1.1-4 4.5-6.4 9.1-6.4 4.8 0 8 2.4 8.5 6.5l.1.8zm-16-1.5h14.3c-.9-3.8-4.7-4.4-6.9-4.4-3.6.1-6.2 1.6-7.4 4.4z"/></g><g id="XMLID_3889_"><path id="XMLID_3893_" class="st0" d="M1330 1029.4c-1.5-2.4-5.5-4.8-10.1-4.8-6 0-8.8 2.5-8.8 5.7 0 3.7 4.4 4.7 9.5 5.4 8.9 1.1 17.2 3.4 17.2 13.6 0 9.5-8.4 13.6-17.9 13.6-8.7 0-15.4-2.7-18.6-10.5l6.7-3.5c1.9 4.7 6.8 6.8 12 6.8 5 0 9.8-1.8 9.8-6.4 0-4-4.2-5.7-9.9-6.3-8.7-1-16.8-3.4-16.8-12.9 0-8.8 8.7-12.4 16.5-12.4 6.6 0 13.5 1.9 16.8 8.5l-6.4 3.2z"/><path id="XMLID_3890_" class="st0" d="M1319.8 1063.6c-10 0-16.3-3.6-19.3-10.9l-.3-.6 8-4.2.3.8c1.6 3.9 5.8 6.3 11.3 6.3 2.1 0 9.1-.4 9.1-5.7 0-3.1-3-4.9-9.2-5.5-8.6-1-17.4-3.5-17.4-13.7 0-9 8.7-13.1 17.2-13.2 8.5 0 14.6 3.1 17.4 8.9l.3.7-7.7 3.9-.4-.6c-1.3-2.1-5-4.4-9.5-4.4-5 0-8.1 1.9-8.1 4.9 0 3 3.5 4 8.8 4.6 9.3 1.1 17.8 3.7 17.8 14.3.4 10.6-9.3 14.4-18.3 14.4zm-17.6-10.9c2.9 6.4 8.5 9.4 17.6 9.4 8.3 0 17.2-3.4 17.2-12.8 0-9-6.6-11.6-16.5-12.9-4.9-.6-10.2-1.6-10.2-6.1 0-3.1 2.5-6.4 9.6-6.4 4.7 0 8.6 2.2 10.4 4.5l5.2-2.6c-2.7-4.9-8-7.4-15.7-7.4-7.8.1-15.8 3.7-15.8 11.7 0 9 7.7 11.2 16.1 12.2 2.6.3 10.5 1.1 10.5 7 0 4.4-4 7.1-10.5 7.1-5.8 0-10.3-2.4-12.4-6.5l-5.5 2.8z"/></g><g id="XMLID_3880_"><path id="XMLID_3886_" class="st0" d="M1351.7 1049.4c.5 3.7 3.7 6.4 9 6.4 2.7 0 6.3-1 8-2.8l4.7 4.7c-3.2 3.3-8.3 4.9-12.9 4.9-10.4 0-16.5-6.4-16.5-16 0-9.1 6.2-15.7 16-15.7 10.1 0 16.3 6.2 15.2 18.6h-23.5zm16.3-6.1c-.5-3.9-3.5-5.8-7.8-5.8-4 0-7.3 1.9-8.4 5.8h16.2z"/><path id="XMLID_3881_" class="st0" d="M1360.5 1063.3c-10.5 0-17.3-6.6-17.3-16.8 0-9.8 6.7-16.5 16.7-16.5 5.2 0 9.4 1.6 12.1 4.7 3.1 3.4 4.4 8.4 3.8 14.7l-.1.7h-23.2c.8 3.1 3.8 4.9 8.1 4.9 2.4 0 5.9-.9 7.5-2.6l.5-.5 5.8 5.7-.5.5c-3 3.3-8.1 5.2-13.4 5.2zm-.5-31.7c-9.1 0-15.2 6-15.2 15 0 9.4 6 15.3 15.8 15.3 4.6 0 9-1.6 11.8-4.1l-3.7-3.7c-2 1.7-5.5 2.5-8 2.5-5.3 0-9.1-2.8-9.7-7l-.1-.8h23.6c.4-5.6-.7-9.9-3.4-12.9-2.6-2.9-6.4-4.3-11.1-4.3zm8.8 12.4h-18l.3-.9c1.1-4 4.5-6.4 9.1-6.4 4.8 0 8 2.4 8.5 6.5l.1.8zm-16-1.5h14.3c-.9-3.8-4.7-4.4-6.9-4.4-3.5.1-6.2 1.6-7.4 4.4z"/></g><g id="XMLID_3874_"><path id="XMLID_3878_" class="st0" d="m1387.7 1031.7.6 3.5c2.3-3.7 5.4-4.3 8.5-4.3 3.1 0 6.1 1.2 7.7 2.9l-3.3 6.5c-1.5-1.3-2.9-1.9-5.4-1.9-3.9 0-7.5 2.1-7.5 7.6v15.8h-7.4v-30h6.8z"/><path id="XMLID_3875_" class="st0" d="M1389 1062.5h-8.9V1031h8.3l.4 2.3c2.4-2.7 5.4-3.1 8-3.1 3.2 0 6.4 1.2 8.3 3.1l.4.4-4 7.8-.7-.6c-1.3-1.1-2.6-1.8-4.9-1.8-2 0-6.7.7-6.7 6.9v16.5zm-7.4-1.5h5.9v-15.1c0-5.2 3.1-8.4 8.2-8.4 2.3 0 3.8.6 5.1 1.6l2.7-5.2c-1.6-1.4-4.3-2.3-6.8-2.3-3.2 0-5.8.7-7.8 3.9l-1.1 1.7-.8-4.8h-5.5v28.6z"/></g><g id="XMLID_3868_"><path id="XMLID_3872_" class="st0" d="m1440.3 1031.7-12.8 30.2h-8l-12.9-30.2h8.1l4.1 9.9 4.6 12.7 4.6-12.5 4.1-10.1h8.2z"/><path id="XMLID_3869_" class="st0" d="M1428 1062.6h-9l-13.5-31.7h9.7l4.3 10.4 3.9 10.8 3.9-10.6 4.3-10.5h9.7l-13.3 31.6zm-8-1.4h7.1l12.2-28.7h-6.5l-3.9 9.6-5.2 14.4-5.3-14.6-3.9-9.4h-6.5l12 28.7z"/></g><g id="XMLID_3859_"><path id="XMLID_3865_" class="st0" d="M1452 1023.3c0 5.8-8.8 5.8-8.8 0s8.8-5.8 8.8 0zm-8.1 8.3v30.2h7.4v-30.2h-7.4z"/><path id="XMLID_3860_" class="st0" d="M1452.1 1062.5h-8.9v-31.6h8.9v31.6zm-7.5-1.5h5.9v-28.7h-5.9v28.7zm3-32.6c-2.6 0-5.1-1.7-5.1-5.1 0-6.7 10.3-6.7 10.3 0 0 3.3-2.6 5.1-5.2 5.1zm0-8.7c-1.8 0-3.6 1.1-3.6 3.6s1.9 3.6 3.6 3.6c1.7 0 3.6-1.1 3.6-3.6s-1.8-3.6-3.6-3.6z"/></g><g id="XMLID_3853_"><path id="XMLID_3857_" class="st0" d="M1483.8 1057.9c-3.5 3.4-7.1 4.7-11.6 4.7-8.7 0-16-5.2-16-15.9s7.2-15.9 16-15.9c4.3 0 7.6 1.2 10.8 4.4l-4.7 4.9c-1.8-1.6-4-2.4-6-2.4-5 0-8.7 3.7-8.7 8.9 0 5.7 3.9 8.8 8.5 8.8 2.4 0 4.7-.7 6.6-2.5l5.1 5z"/><path id="XMLID_3854_" class="st0" d="M1472.2 1063.4c-10.1 0-16.7-6.5-16.7-16.6s6.6-16.6 16.7-16.6c4.6 0 8 1.4 11.4 4.7l.5.5-5.7 6-.5-.5c-1.6-1.4-3.6-2.2-5.5-2.2-4.7 0-7.9 3.3-7.9 8.1 0 5.9 4.2 8 7.8 8 2.5 0 4.5-.8 6.1-2.3l.5-.5 6.1 5.9-.5.5c-3.7 3.5-7.4 5-12.3 5zm0-31.8c-7.4 0-15.2 4-15.2 15.2s7.9 15.2 15.2 15.2c4.2 0 7.5-1.2 10.5-4l-3.9-3.8c-1.7 1.5-4 2.2-6.6 2.2-4.6 0-9.3-2.9-9.3-9.5 0-5.6 4-9.6 9.4-9.6 2.1 0 4.2.8 6 2.1l3.7-3.9c-2.8-2.7-5.8-3.9-9.8-3.9z"/></g><g id="XMLID_3844_"><path id="XMLID_3850_" class="st0" d="M1495.2 1023.3c0 5.8-8.8 5.8-8.8 0s8.8-5.8 8.8 0zm-8.1 8.3v30.2h7.4v-30.2h-7.4z"/><path id="XMLID_3845_" class="st0" d="M1495.3 1062.5h-8.9v-31.6h8.9v31.6zm-7.5-1.5h5.9v-28.7h-5.9v28.7zm3-32.6c-2.6 0-5.1-1.7-5.1-5.1 0-6.7 10.2-6.7 10.3 0-.1 3.3-2.6 5.1-5.2 5.1zm0-8.7c-1.8 0-3.6 1.1-3.6 3.6s1.9 3.6 3.6 3.6c1.7 0 3.6-1.1 3.6-3.6s-1.8-3.6-3.6-3.6z"/></g><g id="XMLID_3835_"><path id="XMLID_3841_" class="st0" d="M1531.7 1046.8c0 8.7-5.9 15.7-15.7 15.7-9.7 0-15.6-7-15.6-15.7 0-8.6 6-15.7 15.5-15.7s15.8 7.1 15.8 15.7zm-23.8 0c0 4.6 2.7 8.8 8.2 8.8 5.4 0 8.2-4.3 8.2-8.8 0-4.5-3.2-8.9-8.2-8.9-5.4 0-8.2 4.4-8.2 8.9z"/><path id="XMLID_3836_" class="st0" d="M1516.1 1063.2c-9.6 0-16.3-6.7-16.3-16.4 0-9.5 6.9-16.4 16.3-16.4 9.5 0 16.5 6.9 16.5 16.4-.1 9.6-6.9 16.4-16.5 16.4zm-.1-31.3c-8.6 0-14.8 6.3-14.8 14.9 0 8.8 6.1 14.9 14.9 14.9s14.9-6.1 14.9-14.9c0-8.7-6.3-14.9-15-14.9zm.1 24.5c-6.1 0-8.9-5-8.9-9.6 0-4.8 3.1-9.6 8.9-9.6 5.6 0 8.9 4.9 8.9 9.6 0 4.6-2.8 9.6-8.9 9.6zm0-17.8c-5.1 0-7.4 4.2-7.4 8.1 0 4 2.3 8.1 7.4 8.1 5.1 0 7.4-4.1 7.4-8.1 0-3.9-2.8-8.1-7.4-8.1z"/></g></g><g id="XMLID_2_"><path id="XMLID_3_" class="st0" d="M1527 846.7c-3.6 0-6.3.3-8 1-1.7.6-3 1.7-3.8 3.3-.8 1.6-1.4 4.5-1.8 8.9 0 .6-.3 1-.8 1.4-.5.4-1.1.5-1.7.5-.6 0-1.1-.2-1.6-.5-.5-.4-.7-.8-.7-1.4v-4c0-17.6.7-26.5 2-26.9l70.2-29.9c.3-.2.4-.4.4-.6s-.1-.5-.4-.6l-70.2-29.5c-.6-.1-1.1-4-1.5-11.5-.4-7.5-.5-13.6-.5-18.2 0-1.1.8-1.7 2.3-1.7 1.5 0 2.3.6 2.5 1.7.6 3.3 1.1 5.9 1.6 7.8.5 1.9 1.4 3.2 2.7 4.1 1.3.9 3.3 1.4 5.8 1.6 2.6.2 6.2.3 10.9.3h54.3c4.3 0 7.3-.3 9.1-1 1.8-.7 3.2-1.9 4-3.7.8-1.8 1.5-5 1.9-9.5.1-.6.4-1 .9-1.4.5-.3 1.1-.5 1.7-.5.6 0 1.2.2 1.7.5s.7.9.7 1.6c0 3.9-.2 7.6-.6 11.2-.4 3.6-.6 7.2-.6 10.7 0 3.7.2 7.6.6 11.5.4 4 .6 7.6.6 10.8 0 .6-.2 1-.7 1.3-.5.3-1 .5-1.7.5-.6 0-1.1-.2-1.7-.5-.5-.3-.8-.8-.9-1.3-.4-4.7-1.1-8-2-9.7-.9-1.7-2.3-2.9-4.1-3.5-1.8-.6-4.8-.9-8.9-.9h-54.6c-.6 0-.9.3-.9 1 0 .9.3 1.5.9 1.7l49.9 21.2c4.3 1.9 12.2 4.7 23.6 8.6.6.2.9.9.9 2.2 0 1.3-.3 2-.9 2.2l-74.2 32.4c-.6.2-.9.7-.9 1.4 0 .5.4.8 1.1.8h54.8c3.5 0 6.2-.3 8.2-.9 2-.6 3.4-1.5 4.4-2.6 1-1.1 1.7-2.5 2-4.2.4-1.7.7-3.6 1-5.9.2-1 1-1.4 2.4-1.4 1.6 0 2.4.5 2.4 1.6 0 2.2-.2 4.5-.6 7.1-.4 2.6-.6 5.7-.6 9.2 0 3.7.2 7 .6 9.9.4 2.9.6 5.3.6 7.3 0 .5-.3.9-.8 1.3-.6.3-1.1.5-1.8.5-1.3 0-2-.6-2.2-1.7-.3-2.5-.6-4.7-1-6.4-.4-1.7-1-3.1-2-4.1-1-1-2.5-1.8-4.4-2.2-2-.4-4.7-.6-8.2-.6H1527z"/><path id="XMLID_5_" class="st0" d="M1570.4 713.7c0 .5.2.7.5.8.3 0 .7.1 1.2.1 9 0 15.9-2 20.7-6.1 4.8-4 7.1-9.9 7.1-17.5 0-7.8-1.6-13.9-4.7-18.2-.3-.3-.4-.6-.4-.9 0-.5.3-1 1-1.5s1.2-.8 1.7-.8c.8 0 2.5 1.4 5 4.2 2.5 2.8 4.3 5.9 5.3 9.3 1 3.4 1.5 7.4 1.5 12.1 0 10.9-3.1 19.4-9.3 25.6-6.2 6.2-14.8 9.3-25.8 9.3-6.5 0-12.4-1.4-17.8-4.3-5.4-2.8-9.7-6.8-12.7-11.9-3.1-5.1-4.6-10.7-4.6-17 0-8.1 2.6-14.7 7.9-19.8s12.1-7.6 20.3-7.6c2.1 0 3.1.7 3.1 2.2v42zm-5.2-27c0-1-.3-1.6-.8-2-.5-.4-1.9-.6-4.2-.6-4.3 0-8 1.3-11.2 3.8-3.1 2.5-4.7 5.8-4.7 9.9 0 4.5 1.5 8.1 4.3 10.9 2.9 2.8 7.1 4.5 12.6 5.2l2.4.2c1.1 0 1.6-.2 1.6-.6v-26.8z"/><path id="XMLID_8_" class="st0" d="M1543.7 663.6c-1.4 0-2.2-.4-2.2-1.3 0-2 .2-4.2.5-6.7s.5-5 .5-7.6c0-2.7-.2-5.4-.5-8.2-.3-2.7-.5-5.4-.5-8 0-.4.2-.7.7-1 .5-.3.9-.4 1.5-.4.5 0 1 .1 1.5.4s.8.6.8 1.1c.2 1.4.4 2.8.6 4.3.2 1.5.8 2.3 1.9 2.3 1 0 2.1-.4 3.4-1.2 3.2-1.9 8.4-5.7 15.5-11.5.4-.3.6-.6.6-.9 0-.2-.1-.4-.4-.6-2.9-2.4-5.6-4.4-8.1-5.9-2.5-1.6-4.4-2.7-5.6-3.5-1.3-.7-2.5-1.1-3.5-1.1-1.3 0-2.3.5-3 1.6-.6 1.1-1.1 2.9-1.3 5.5 0 .5-.3.8-.8 1.1s-1 .4-1.5.4-1-.1-1.5-.4c-.5-.2-.7-.6-.7-1.1 0-2.7.2-5.2.5-7.5s.5-4.6.5-6.8c0-2.3-.2-4.5-.5-6.3-.3-1.9-.5-3.5-.5-5 0-.4.2-.7.7-1 .5-.3.9-.4 1.5-.4 1.5 0 2.3.5 2.3 1.4.3 3.2 1.1 5.6 2.4 7.4 1.3 1.7 3.1 3.6 5.5 5.4l17.2 13c.3.3.7.4 1.1.4.4 0 .8-.2 1.2-.6 9.2-7.8 16.4-13.6 21.6-17.4 2.7-2 4.9-3.9 6.4-5.7 1.5-1.8 2.4-4.2 2.6-7.1 0-.6.2-1.1.7-1.4.5-.3 1-.5 1.6-.5.6 0 1.1.2 1.6.5.4.3.6.8.6 1.4 0 2.1-.1 4.4-.4 7-.3 2.6-.4 5.4-.4 8.3 0 2.8.2 5.7.5 8.7.3 2.9.5 5.8.5 8.7 0 .6-.2 1.1-.7 1.4-.5.3-1 .5-1.7.5-1.5 0-2.3-.6-2.3-1.8-.2-2.3-.4-4.1-.7-5.1-.3-1.1-.9-1.6-1.8-1.6-2.3 0-8.8 4.5-19.5 13.4l-.2.4.2.4c1.2 1.2 3.5 3.2 6.6 5.7 3.2 2.6 5.2 4 6 4.4 2.2 1.3 4 1.9 5.4 1.9 1.4 0 2.3-.6 2.8-1.8.5-1.2.9-3.1 1.3-5.6.2-1 1-1.4 2.4-1.4.6 0 1.1.1 1.5.4.4.3.6.7.6 1.2 0 2.1-.2 4.3-.5 6.6s-.5 4.8-.5 7.3c0 2.3.2 4.6.5 6.9.3 2.3.5 4.2.5 5.7 0 .5-.2.9-.6 1.2-.4.3-1 .5-1.6.5-1.4 0-2.3-.5-2.4-1.5-.4-3.3-1.3-5.8-2.8-7.7-1.5-1.9-3.8-4.1-6.9-6.6-2.4-1.9-4.8-3.9-7.3-6.1-5.7-5.2-8.7-7.8-9-7.8h-.2l-1.1.6-12.4 9.6c-3.7 3-7.5 5.6-11.2 8-1.8 1.1-3.2 2.1-4.2 3-1 .9-1.7 1.8-2.1 2.7-.4.9-.7 2.2-.9 4 0 .5-.3.8-.8 1.1-.5.2-1 .3-1.5.3z"/><path id="XMLID_14_" class="st0" d="M1609.9 573.3c0 2.4-.9 4.6-2.8 6.5-1.9 1.9-4 2.8-6.5 2.8s-4.7-.9-6.6-2.8c-1.9-1.9-2.8-4-2.8-6.5 0-2.6.9-4.9 2.8-6.7 1.9-1.8 4.1-2.7 6.6-2.7 2.4 0 4.6.9 6.5 2.7 1.8 1.8 2.8 4 2.8 6.7z"/></g></svg>